<mxfile host="drawio-plugin" modified="2022-02-10T14:24:37.629Z" agent="5.0 (X11; Linux x86_64) AppleWebKit/537.36 (KHTML, like Gecko) Chrome/89.0.4389.114 Safari/537.36" etag="_hRNdgADrpXllRJqDQzE" version="15.5.4" type="embed"><diagram id="x1eozHJv5DdPt1ebnL7w" name="Page-1"><mxGraphModel dx="1329" dy="722" grid="1" gridSize="10" guides="1" tooltips="1" connect="1" arrows="1" fold="1" page="1" pageScale="1" pageWidth="850" pageHeight="1100" math="0" shadow="0"><root><mxCell id="0"/><mxCell id="1" parent="0"/><mxCell id="JitU0k-865CrKq4ra549-4" value="content_changer" style="shape=folder;fontStyle=1;spacingTop=10;tabWidth=40;tabHeight=14;tabPosition=left;html=1;" parent="1" vertex="1"><mxGeometry x="337.5" y="180" width="135" height="60" as="geometry"/></mxCell><mxCell id="JitU0k-865CrKq4ra549-9" style="edgeStyle=orthogonalEdgeStyle;rounded=0;orthogonalLoop=1;jettySize=auto;html=1;exitX=0.25;exitY=1;exitDx=0;exitDy=0;entryX=0;entryY=0;entryDx=20;entryDy=0;entryPerimeter=0;" parent="1" source="JitU0k-865CrKq4ra549-5" target="JitU0k-865CrKq4ra549-6" edge="1"><mxGeometry relative="1" as="geometry"><Array as="points"><mxPoint x="375" y="120"/><mxPoint x="240" y="120"/></Array></mxGeometry></mxCell><mxCell id="JitU0k-865CrKq4ra549-10" style="edgeStyle=orthogonalEdgeStyle;rounded=0;orthogonalLoop=1;jettySize=auto;html=1;exitX=0.5;exitY=1;exitDx=0;exitDy=0;entryX=0.493;entryY=0.217;entryDx=0;entryDy=0;entryPerimeter=0;" parent="1" source="JitU0k-865CrKq4ra549-5" target="JitU0k-865CrKq4ra549-4" edge="1"><mxGeometry relative="1" as="geometry"/></mxCell><mxCell id="JitU0k-865CrKq4ra549-11" style="edgeStyle=orthogonalEdgeStyle;rounded=0;orthogonalLoop=1;jettySize=auto;html=1;exitX=0.75;exitY=1;exitDx=0;exitDy=0;entryX=0;entryY=0;entryDx=20;entryDy=0;entryPerimeter=0;" parent="1" source="JitU0k-865CrKq4ra549-5" target="JitU0k-865CrKq4ra549-8" edge="1"><mxGeometry relative="1" as="geometry"><Array as="points"><mxPoint x="435" y="120"/><mxPoint x="550" y="120"/></Array></mxGeometry></mxCell><mxCell id="JitU0k-865CrKq4ra549-5" value="content_changer" style="rounded=0;whiteSpace=wrap;html=1;" parent="1" vertex="1"><mxGeometry x="345" y="40" width="120" height="60" as="geometry"/></mxCell><mxCell id="JitU0k-865CrKq4ra549-6" value="docs" style="shape=folder;fontStyle=1;spacingTop=10;tabWidth=40;tabHeight=14;tabPosition=left;html=1;" parent="1" vertex="1"><mxGeometry x="220" y="190" width="70" height="50" as="geometry"/></mxCell><mxCell id="JitU0k-865CrKq4ra549-8" value="tests" style="shape=folder;fontStyle=1;spacingTop=10;tabWidth=40;tabHeight=14;tabPosition=left;html=1;" parent="1" vertex="1"><mxGeometry x="530" y="190" width="70" height="50" as="geometry"/></mxCell><mxCell id="JitU0k-865CrKq4ra549-21" style="edgeStyle=orthogonalEdgeStyle;rounded=0;orthogonalLoop=1;jettySize=auto;html=1;exitX=0;exitY=0;exitDx=0;exitDy=37;exitPerimeter=0;entryX=0.518;entryY=0.217;entryDx=0;entryDy=0;entryPerimeter=0;" parent="1" source="JitU0k-865CrKq4ra549-12" target="JitU0k-865CrKq4ra549-20" edge="1"><mxGeometry relative="1" as="geometry"/></mxCell><mxCell id="JitU0k-865CrKq4ra549-24" style="edgeStyle=orthogonalEdgeStyle;rounded=0;orthogonalLoop=1;jettySize=auto;html=1;exitX=0;exitY=0;exitDx=135;exitDy=37;exitPerimeter=0;entryX=0.457;entryY=0.02;entryDx=0;entryDy=0;entryPerimeter=0;" parent="1" source="JitU0k-865CrKq4ra549-12" target="JitU0k-865CrKq4ra549-23" edge="1"><mxGeometry relative="1" as="geometry"><Array as="points"><mxPoint x="493" y="480"/><mxPoint x="662" y="480"/></Array></mxGeometry></mxCell><mxCell id="JitU0k-865CrKq4ra549-12" value="content_changer" style="shape=folder;fontStyle=1;spacingTop=10;tabWidth=40;tabHeight=14;tabPosition=left;html=1;" parent="1" vertex="1"><mxGeometry x="358" y="440" width="135" height="60" as="geometry"/></mxCell><mxCell id="JitU0k-865CrKq4ra549-13" value="Put tags into one column&lt;br&gt;" style="text;html=1;align=center;verticalAlign=middle;resizable=0;points=[];autosize=1;strokeColor=none;fillColor=none;" parent="1" vertex="1"><mxGeometry x="620" y="400" width="150" height="20" as="geometry"/></mxCell><mxCell id="JitU0k-865CrKq4ra549-14" value="separate names into fName and sName&lt;br&gt;" style="text;html=1;align=center;verticalAlign=middle;resizable=0;points=[];autosize=1;strokeColor=none;fillColor=none;" parent="1" vertex="1"><mxGeometry x="620" y="430" width="230" height="20" as="geometry"/></mxCell><mxCell id="JitU0k-865CrKq4ra549-15" value="TableModifier" style="swimlane;fontStyle=1;align=center;verticalAlign=top;childLayout=stackLayout;horizontal=1;startSize=26;horizontalStack=0;resizeParent=1;resizeParentMax=0;resizeLast=0;collapsible=1;marginBottom=0;" parent="1" vertex="1"><mxGeometry x="110" y="640" width="192" height="210" as="geometry"/></mxCell><mxCell id="JitU0k-865CrKq4ra549-16" value="+ dataframe: pd.Dataframe" style="text;strokeColor=none;fillColor=none;align=left;verticalAlign=top;spacingLeft=4;spacingRight=4;overflow=hidden;rotatable=0;points=[[0,0.5],[1,0.5]];portConstraint=eastwest;" parent="JitU0k-865CrKq4ra549-15" vertex="1"><mxGeometry y="26" width="192" height="34" as="geometry"/></mxCell><mxCell id="JitU0k-865CrKq4ra549-17" value="" style="line;strokeWidth=1;fillColor=none;align=left;verticalAlign=middle;spacingTop=-1;spacingLeft=3;spacingRight=3;rotatable=0;labelPosition=right;points=[];portConstraint=eastwest;" parent="JitU0k-865CrKq4ra549-15" vertex="1"><mxGeometry y="60" width="192" height="8" as="geometry"/></mxCell><mxCell id="JitU0k-865CrKq4ra549-18" value="+ stack_tags_columns(&#10;    columns: List[str],&#10;    tags_column_name: str&#10;   ):  pd.Dataframe&#10;&#10;+ split_names(&#10;    column_with_names: str&#10;   ): pd.Dataframe" style="text;strokeColor=none;fillColor=none;align=left;verticalAlign=top;spacingLeft=4;spacingRight=4;overflow=hidden;rotatable=0;points=[[0,0.5],[1,0.5]];portConstraint=eastwest;" parent="JitU0k-865CrKq4ra549-15" vertex="1"><mxGeometry y="68" width="192" height="142" as="geometry"/></mxCell><mxCell id="JitU0k-865CrKq4ra549-22" style="edgeStyle=orthogonalEdgeStyle;rounded=0;orthogonalLoop=1;jettySize=auto;html=1;exitX=0.5;exitY=1;exitDx=0;exitDy=0;exitPerimeter=0;entryX=0.5;entryY=0;entryDx=0;entryDy=0;" parent="1" source="JitU0k-865CrKq4ra549-20" target="JitU0k-865CrKq4ra549-15" edge="1"><mxGeometry relative="1" as="geometry"/></mxCell><mxCell id="JitU0k-865CrKq4ra549-20" value="table_modifier" style="shape=folder;fontStyle=1;spacingTop=10;tabWidth=40;tabHeight=14;tabPosition=left;html=1;" parent="1" vertex="1"><mxGeometry x="151.5" y="520" width="109" height="60" as="geometry"/></mxCell><mxCell id="JitU0k-865CrKq4ra549-23" value="gui&lt;br&gt;" style="shape=folder;fontStyle=1;spacingTop=10;tabWidth=40;tabHeight=14;tabPosition=left;html=1;" parent="1" vertex="1"><mxGeometry x="630" y="540" width="70" height="50" as="geometry"/></mxCell><mxCell id="2" value="&lt;p style=&quot;margin: 0px ; margin-top: 4px ; text-align: center&quot;&gt;&lt;/p&gt;&lt;p style=&quot;margin: 0px ; margin-left: 4px&quot;&gt;&lt;b&gt;TkinterMain()&lt;/b&gt;&lt;/p&gt;" style="verticalAlign=top;align=left;overflow=fill;fontSize=12;fontFamily=Helvetica;html=1;" vertex="1" parent="1"><mxGeometry x="440" y="680" width="160" height="30" as="geometry"/></mxCell></root></mxGraphModel></diagram></mxfile>